<?xml version="1.0" encoding="UTF-8" standalone="no"?>
<!-- Created with Inkscape (http://www.inkscape.org/) -->

<svg
   xmlns:osb="http://www.openswatchbook.org/uri/2009/osb"
   xmlns:dc="http://purl.org/dc/elements/1.1/"
   xmlns:cc="http://creativecommons.org/ns#"
   xmlns:rdf="http://www.w3.org/1999/02/22-rdf-syntax-ns#"
   xmlns:svg="http://www.w3.org/2000/svg"
   xmlns="http://www.w3.org/2000/svg"
   xmlns:sodipodi="http://sodipodi.sourceforge.net/DTD/sodipodi-0.dtd"
   xmlns:inkscape="http://www.inkscape.org/namespaces/inkscape"
   width="210mm"
   height="297mm"
   viewBox="0 0 793.70081 1122.5197"
   version="1.1"
   id="SVGRoot"
   inkscape:version="0.92.4 (unknown)"
   sodipodi:docname="watermark.svg">
  <sodipodi:namedview
     id="base"
     pagecolor="#ffffff"
     bordercolor="#666666"
     borderopacity="1.0"
     inkscape:pageopacity="0.0"
     inkscape:pageshadow="2"
     inkscape:zoom="1"
     inkscape:cx="262.49116"
     inkscape:cy="610.01428"
     inkscape:document-units="px"
     inkscape:current-layer="layer1"
     showgrid="false"
     inkscape:window-width="1920"
     inkscape:window-height="1056"
     inkscape:window-x="0"
     inkscape:window-y="24"
     inkscape:window-maximized="1"
     inkscape:pagecheckerboard="true"
     showborder="true"
     units="mm"
     showguides="true"
     inkscape:guide-bbox="true" />
  <defs
     id="defs5036">
    <linearGradient
       id="linearGradient111851"
       osb:paint="solid">
      <stop
         style="stop-color:#10253f;stop-opacity:1;"
         offset="0"
         id="stop111849" />
    </linearGradient>
    <linearGradient
       id="linearGradient111845">
      <stop
         style="stop-color:#ec4220;stop-opacity:1;"
         offset="0"
         id="stop111843" />
    </linearGradient>
    <linearGradient
       id="linearGradient111839">
      <stop
         style="stop-color:#ec4220;stop-opacity:1;"
         offset="0"
         id="stop111837" />
    </linearGradient>
    <linearGradient
       id="PickedBean"
       osb:paint="solid">
      <stop
         style="stop-color:#754c29;stop-opacity:1;"
         offset="0"
         id="stop111831" />
    </linearGradient>
    <linearGradient
       id="Eminence"
       osb:paint="solid">
      <stop
         style="stop-color:#682e81;stop-opacity:1;"
         offset="0"
         id="stop111825" />
    </linearGradient>
    <linearGradient
       id="TreePoppy"
       osb:paint="solid">
      <stop
         style="stop-color:#ff9900;stop-opacity:1;"
         offset="0"
         id="stop111819" />
    </linearGradient>
    <linearGradient
       id="PersianRed"
       osb:paint="solid">
      <stop
         style="stop-color:#d11b22;stop-opacity:1;"
         offset="0"
         id="stop111813" />
    </linearGradient>
    <linearGradient
       id="CranBerry"
       osb:paint="solid">
      <stop
         style="stop-color:#d35a85;stop-opacity:1;"
         offset="0"
         id="stop111807" />
    </linearGradient>
    <linearGradient
       id="PictonBlue"
       osb:paint="solid">
      <stop
         style="stop-color:#49aadf;stop-opacity:1;"
         offset="0"
         id="stop111801" />
    </linearGradient>
    <linearGradient
       id="LightingYellow"
       osb:paint="solid">
      <stop
         style="stop-color:#ffc232;stop-opacity:1;"
         offset="0"
         id="stop111795" />
    </linearGradient>
    <linearGradient
       id="Emrald"
       osb:paint="solid">
      <stop
         style="stop-color:#4dd087;stop-opacity:1;"
         offset="0"
         id="stop111787" />
    </linearGradient>
    <linearGradient
       id="TowerGray"
       osb:paint="solid">
      <stop
         style="stop-color:#b0bbc0;stop-opacity:1;"
         offset="0"
         id="stop111781" />
    </linearGradient>
    <linearGradient
       id="BlueBayoux"
       osb:paint="solid">
      <stop
         style="stop-color:#506875;stop-opacity:1;"
         offset="0"
         id="stop111775" />
    </linearGradient>
    <linearGradient
       id="PersianGreen"
       osb:paint="solid">
      <stop
         style="stop-color:#00a79d;stop-opacity:1;"
         offset="0"
         id="stop111769" />
    </linearGradient>
    <linearGradient
       id="linearGradient111765">
      <stop
         style="stop-color:#002060;stop-opacity:1;"
         offset="0"
         id="stop111763" />
    </linearGradient>
    <linearGradient
       id="DeepSapphire"
       osb:paint="solid">
      <stop
         style="stop-color:#002060;stop-opacity:1;"
         offset="0"
         id="stop111757" />
    </linearGradient>
    <linearGradient
       id="ChaletGreen"
       osb:paint="solid">
      <stop
         style="stop-color:#4f6228;stop-opacity:1;"
         offset="0"
         id="stop111751" />
    </linearGradient>
    <linearGradient
       id="White"
       osb:paint="solid">
      <stop
         style="stop-color:#ffffff;stop-opacity:1;"
         offset="0"
         id="stop110311" />
    </linearGradient>
    <linearGradient
       id="BigStone"
       osb:paint="solid">
      <stop
         style="stop-color:#10253f;stop-opacity:1;"
         offset="0"
         id="stop110305" />
    </linearGradient>
    <linearGradient
       id="Pomegranate"
       osb:paint="solid">
      <stop
         style="stop-color:#ec4220;stop-opacity:1;"
         offset="0"
         id="stop110299" />
    </linearGradient>
    <linearGradient
       id="Stiletto"
       osb:paint="solid">
      <stop
         style="stop-color:#953735;stop-opacity:1;"
         offset="0"
         id="stop110293" />
    </linearGradient>
    <linearGradient
       id="JapaneseLaurel"
       osb:paint="solid">
      <stop
         style="stop-color:#006600;stop-opacity:1;"
         offset="0"
         id="stop110287" />
    </linearGradient>
    <linearGradient
       id="Black"
       osb:paint="solid">
      <stop
         style="stop-color:#000000;stop-opacity:1;"
         offset="0"
         id="stop110281" />
    </linearGradient>
  </defs>
  <metadata
     id="metadata5039">
    <rdf:RDF>
      <cc:Work
         rdf:about="">
        <dc:format>image/svg+xml</dc:format>
        <dc:type
           rdf:resource="http://purl.org/dc/dcmitype/StillImage" />
        <dc:title />
      </cc:Work>
    </rdf:RDF>
  </metadata>
  <g
     id="layer1"
     inkscape:groupmode="layer"
     inkscape:label="Layer 1"
     transform="translate(0,402.51962)">
    <path
       inkscape:connector-curvature="0"
       id="path862"
       style="font-style:normal;font-variant:normal;font-weight:800;font-stretch:normal;font-size:53.33333206px;line-height:1;font-family:'Crimson Pro';-inkscape-font-specification:'Crimson Pro Ultra-Bold';font-variant-ligatures:normal;font-variant-caps:normal;font-variant-numeric:normal;font-feature-settings:normal;text-align:center;letter-spacing:0px;word-spacing:0px;writing-mode:lr-tb;text-anchor:middle;fill:#9d9d9d;fill-opacity:1;stroke:none;stroke-width:0.61277312px;stroke-linecap:butt;stroke-linejoin:miter;stroke-opacity:1"
       d="m 332.41343,133.67078 -5.17027,-11.42566 -4.94687,11.42566 h -1.81917 l -7.37242,-16.53211 -1.69152,-0.57447 0.0957,-1.72343 h 8.68096 l 0.0957,1.72343 -1.56385,0.57447 4.02133,9.57458 3.06386,-7.62775 -0.89363,-1.94683 -1.59576,-0.57447 0.0958,-1.72343 h 8.93627 l 0.0957,1.72343 -2.04258,0.57447 4.24473,9.92565 3.79791,-9.92565 -2.13832,-0.57447 0.0958,-1.72343 h 6.76604 l 0.0957,1.72343 -1.6596,0.57447 -7.37242,16.53211 z" />
    <path
       inkscape:connector-curvature="0"
       id="path864"
       style="font-style:normal;font-variant:normal;font-weight:800;font-stretch:normal;font-size:53.33333206px;line-height:1;font-family:'Crimson Pro';-inkscape-font-specification:'Crimson Pro Ultra-Bold';font-variant-ligatures:normal;font-variant-caps:normal;font-variant-numeric:normal;font-feature-settings:normal;text-align:center;letter-spacing:0px;word-spacing:0px;writing-mode:lr-tb;text-anchor:middle;fill:#9d9d9d;fill-opacity:1;stroke:none;stroke-width:0.61277312px;stroke-linecap:butt;stroke-linejoin:miter;stroke-opacity:1"
       d="m 347.50935,133.83036 q -1.53193,0 -2.61705,-0.67022 -1.08512,-0.67022 -1.6596,-1.59577 -0.57447,-0.92554 -0.57447,-1.75534 0,-2.39364 2.90429,-3.19152 l 5.07453,-1.43619 v -0.92554 q 0,-0.63831 -0.4149,-1.2447 -0.4149,-0.60639 -1.08512,-0.95746 -0.63831,-0.38298 -1.37236,-0.38298 -0.44681,0 -0.6383,0.22341 -0.15958,0.2234 -0.22341,0.79788 l -0.19149,2.17023 q -1.72342,0.35107 -2.80855,-0.0957 -1.08511,-0.47873 -1.08511,-1.53193 0,-0.67022 0.67022,-1.34044 0.70213,-0.70214 1.72342,-1.27661 1.02129,-0.57448 2.04258,-0.95746 1.0532,-0.4149 1.72342,-0.47873 3.03195,0 4.75538,1.30853 1.75534,1.30852 1.75534,3.57451 l -0.0957,4.08515 q 0,1.02129 0.0319,1.50001 0.0638,0.44682 0.22341,0.76597 l 2.10641,0.38298 v 1.50002 l -2.26599,0.98938 q -1.18086,0.54256 -2.13832,0.54256 -1.37235,0 -1.91492,-1.34044 l -0.35107,-0.8298 q -0.89362,1.02129 -1.81917,1.59576 -0.92553,0.57448 -1.75533,0.57448 z m 1.883,-3.22345 q 0.31915,0 0.67022,-0.0957 0.35107,-0.12766 0.63831,-0.38299 v -3.03194 l -1.69151,0.19149 q -0.79789,0.0957 -1.14895,0.47873 -0.31916,0.38298 -0.31916,0.95746 0,0.73404 0.54257,1.30852 0.57447,0.57447 1.30852,0.57447 z" />
    <path
       inkscape:connector-curvature="0"
       id="path866"
       style="font-style:normal;font-variant:normal;font-weight:800;font-stretch:normal;font-size:53.33333206px;line-height:1;font-family:'Crimson Pro';-inkscape-font-specification:'Crimson Pro Ultra-Bold';font-variant-ligatures:normal;font-variant-caps:normal;font-variant-numeric:normal;font-feature-settings:normal;text-align:center;letter-spacing:0px;word-spacing:0px;writing-mode:lr-tb;text-anchor:middle;fill:#9d9d9d;fill-opacity:1;stroke:none;stroke-width:0.61277312px;stroke-linecap:butt;stroke-linejoin:miter;stroke-opacity:1"
       d="m 370.13727,130.63883 q -0.47873,1.50002 -1.81917,2.39365 -1.30852,0.86171 -3.00003,0.86171 -2.32981,0 -3.79792,-1.30853 -1.4681,-1.30853 -1.4681,-3.98941 l 0.0957,-6.95752 h -2.23407 v -1.08512 l 6.00007,-4.5958 h 1.0532 l -0.0319,3.51068 h 4.34048 v 2.17024 h -4.37239 l -0.0638,6.60646 q 0,1.21277 0.60639,1.72342 0.6383,0.51064 1.72342,0.51064 1.14895,0 2.07449,-0.79788 z" />
    <path
       inkscape:connector-curvature="0"
       id="path868"
       style="font-style:normal;font-variant:normal;font-weight:800;font-stretch:normal;font-size:53.33333206px;line-height:1;font-family:'Crimson Pro';-inkscape-font-specification:'Crimson Pro Ultra-Bold';font-variant-ligatures:normal;font-variant-caps:normal;font-variant-numeric:normal;font-feature-settings:normal;text-align:center;letter-spacing:0px;word-spacing:0px;writing-mode:lr-tb;text-anchor:middle;fill:#9d9d9d;fill-opacity:1;stroke:none;stroke-width:0.61277312px;stroke-linecap:butt;stroke-linejoin:miter;stroke-opacity:1"
       d="m 377.95651,133.83036 q -2.13832,0 -3.79791,-0.95746 -1.62768,-0.95746 -2.58514,-2.58514 -0.92554,-1.62768 -0.92554,-3.57451 0,-2.20215 1.0532,-3.89366 1.08512,-1.69151 2.77663,-2.64897 1.69151,-0.98937 3.63834,-0.98937 2.84046,0 4.43622,1.75534 1.62768,1.72342 1.62768,4.53197 v 0.82979 h -8.84053 q 0.15958,1.85109 1.30853,3.00004 1.14895,1.14895 3.00004,1.14895 1.08511,0 1.97874,-0.38298 0.89363,-0.41491 1.72342,-1.34044 l 1.05321,0.98937 q -0.89363,2.01066 -2.61705,3.06386 -1.69151,1.05321 -3.82984,1.05321 z m -0.0957,-12.70228 q -1.05321,0 -1.75534,0.8298 -0.70214,0.8298 -0.79788,2.58513 h 4.8192 v -0.35107 q 0,-1.40426 -0.60639,-2.23406 -0.57447,-0.8298 -1.65959,-0.8298 z" />
    <path
       inkscape:connector-curvature="0"
       id="path870"
       style="font-style:normal;font-variant:normal;font-weight:800;font-stretch:normal;font-size:53.33333206px;line-height:1;font-family:'Crimson Pro';-inkscape-font-specification:'Crimson Pro Ultra-Bold';font-variant-ligatures:normal;font-variant-caps:normal;font-variant-numeric:normal;font-feature-settings:normal;text-align:center;letter-spacing:0px;word-spacing:0px;writing-mode:lr-tb;text-anchor:middle;fill:#9d9d9d;fill-opacity:1;stroke:none;stroke-width:0.61277312px;stroke-linecap:butt;stroke-linejoin:miter;stroke-opacity:1"
       d="m 385.68,133.57503 -0.0957,-1.56384 1.97875,-0.57448 q 0.0319,-0.2234 0.0638,-1.21278 0.0638,-0.98937 0.0957,-1.91492 l 0.0319,-2.39364 q 0,-0.89363 -0.0638,-1.53193 -0.0319,-0.63831 -0.19149,-1.59576 l -2.04258,-0.44682 v -1.53193 l 5.93624,-1.56385 0.98937,0.57448 -0.12766,2.5213 0.0958,0.0319 q 0.86171,-1.78725 1.78726,-2.42556 0.95745,-0.6383 2.01066,-0.6383 0.89362,0 1.59576,0.54256 0.70214,0.51064 0.70214,1.62768 0,1.11703 -0.76597,1.75534 -0.73405,0.6383 -1.72342,0.6383 -0.70214,0 -1.2447,-0.15957 -0.54256,-0.1915 -1.14895,-0.70214 -0.60639,0.57448 -1.0532,1.4681 l 0.0319,2.39365 q 0,1.94683 0.0319,3.15961 0.0638,1.18087 0.0957,1.37236 l 2.77663,0.54255 -0.0957,1.62768 z" />
    <path
       inkscape:connector-curvature="0"
       id="path872"
       style="font-style:normal;font-variant:normal;font-weight:800;font-stretch:normal;font-size:53.33333206px;line-height:1;font-family:'Crimson Pro';-inkscape-font-specification:'Crimson Pro Ultra-Bold';font-variant-ligatures:normal;font-variant-caps:normal;font-variant-numeric:normal;font-feature-settings:normal;text-align:center;letter-spacing:0px;word-spacing:0px;writing-mode:lr-tb;text-anchor:middle;fill:#9d9d9d;fill-opacity:1;stroke:none;stroke-width:0.61277312px;stroke-linecap:butt;stroke-linejoin:miter;stroke-opacity:1"
       d="m 406.74408,114.84077 h 7.11711 l 6.12773,12.60653 5.32985,-12.60653 h 7.27668 l 0.0957,1.72343 -2.07449,0.54256 q 0,0.54256 0,1.50002 0.0319,0.92554 0.0638,2.39364 l 0.22341,5.48942 q 0.0638,1.88301 0.19149,3.25536 0.12766,1.37236 0.15957,1.53193 l 2.0745,0.57448 -0.0958,1.72342 h -9.35117 l -0.0957,-1.72342 2.04258,-0.57448 q 0.0638,-0.15957 0.0958,-1.56384 0.0319,-1.40428 0,-3.35111 l -0.0638,-6.67029 -5.90433,13.97889 h -2.32981 l -6.31922,-12.92568 v 6.0639 q 0,2.36173 0.0319,3.3511 0.0319,0.98937 0.0638,1.11703 l 2.26599,0.57448 -0.0958,1.72342 h -7.24476 l -0.0958,-1.72342 2.23407,-0.57448 q 0.0319,-0.15957 0.0638,-0.86171 0.0319,-0.70213 0.0319,-1.65959 0.0319,-0.95746 0.0638,-1.883 l 0.0638,-5.80858 q 0.0319,-1.59576 0.0319,-2.58514 0,-0.98937 0,-1.34044 l -2.0745,-0.57447 z" />
    <path
       inkscape:connector-curvature="0"
       id="path874"
       style="font-style:normal;font-variant:normal;font-weight:800;font-stretch:normal;font-size:53.33333206px;line-height:1;font-family:'Crimson Pro';-inkscape-font-specification:'Crimson Pro Ultra-Bold';font-variant-ligatures:normal;font-variant-caps:normal;font-variant-numeric:normal;font-feature-settings:normal;text-align:center;letter-spacing:0px;word-spacing:0px;writing-mode:lr-tb;text-anchor:middle;fill:#9d9d9d;fill-opacity:1;stroke:none;stroke-width:0.61277312px;stroke-linecap:butt;stroke-linejoin:miter;stroke-opacity:1"
       d="m 440.25512,133.83036 q -1.53194,0 -2.61705,-0.67022 -1.08513,-0.67022 -1.6596,-1.59577 -0.57448,-0.92554 -0.57448,-1.75534 0,-2.39364 2.9043,-3.19152 l 5.07452,-1.43619 v -0.92554 q 0,-0.63831 -0.4149,-1.2447 -0.41489,-0.60639 -1.08512,-0.95746 -0.6383,-0.38298 -1.37235,-0.38298 -0.44682,0 -0.63831,0.22341 -0.15958,0.2234 -0.2234,0.79788 l -0.19149,2.17023 q -1.72343,0.35107 -2.80855,-0.0957 -1.08512,-0.47873 -1.08512,-1.53193 0,-0.67022 0.67022,-1.34044 0.70214,-0.70214 1.72343,-1.27661 1.02129,-0.57448 2.04257,-0.95746 1.05321,-0.4149 1.72343,-0.47873 3.03195,0 4.75537,1.30853 1.75534,1.30852 1.75534,3.57451 l -0.0958,4.08515 q 0,1.02129 0.0319,1.50001 0.0638,0.44682 0.2234,0.76597 l 2.10641,0.38298 v 1.50002 l -2.26598,0.98938 q -1.18087,0.54256 -2.13832,0.54256 -1.37236,0 -1.91492,-1.34044 l -0.35107,-0.8298 q -0.89363,1.02129 -1.81917,1.59576 -0.92554,0.57448 -1.75534,0.57448 z m 1.883,-3.22345 q 0.31915,0 0.67022,-0.0957 0.35106,-0.12766 0.6383,-0.38299 v -3.03194 l -1.6915,0.19149 q -0.79789,0.0957 -1.14895,0.47873 -0.31916,0.38298 -0.31916,0.95746 0,0.73404 0.54256,1.30852 0.57448,0.57447 1.30853,0.57447 z" />
    <path
       inkscape:connector-curvature="0"
       id="path876"
       style="font-style:normal;font-variant:normal;font-weight:800;font-stretch:normal;font-size:53.33333206px;line-height:1;font-family:'Crimson Pro';-inkscape-font-specification:'Crimson Pro Ultra-Bold';font-variant-ligatures:normal;font-variant-caps:normal;font-variant-numeric:normal;font-feature-settings:normal;text-align:center;letter-spacing:0px;word-spacing:0px;writing-mode:lr-tb;text-anchor:middle;fill:#9d9d9d;fill-opacity:1;stroke:none;stroke-width:0.61277312px;stroke-linecap:butt;stroke-linejoin:miter;stroke-opacity:1"
       d="m 451.17013,133.57503 -0.0958,-1.56384 1.97875,-0.57448 q 0.0319,-0.2234 0.0638,-1.21278 0.0638,-0.98937 0.0957,-1.91492 l 0.0319,-2.39364 q 0,-0.89363 -0.0638,-1.53193 -0.0319,-0.63831 -0.19149,-1.59576 l -2.04257,-0.44682 v -1.53193 l 5.93624,-1.56385 0.98937,0.57448 -0.12766,2.5213 0.0958,0.0319 q 0.86171,-1.78725 1.78725,-2.42556 0.95746,-0.6383 2.01066,-0.6383 0.89363,0 1.59576,0.54256 0.70214,0.51064 0.70214,1.62768 0,1.11703 -0.76596,1.75534 -0.73406,0.6383 -1.72343,0.6383 -0.70214,0 -1.24469,-0.15957 -0.54256,-0.1915 -1.14895,-0.70214 -0.6064,0.57448 -1.05321,1.4681 l 0.0319,2.39365 q 0,1.94683 0.0319,3.15961 0.0638,1.18087 0.0958,1.37236 l 2.77663,0.54255 -0.0958,1.62768 z" />
    <path
       inkscape:connector-curvature="0"
       id="path878"
       style="font-style:normal;font-variant:normal;font-weight:800;font-stretch:normal;font-size:53.33333206px;line-height:1;font-family:'Crimson Pro';-inkscape-font-specification:'Crimson Pro Ultra-Bold';font-variant-ligatures:normal;font-variant-caps:normal;font-variant-numeric:normal;font-feature-settings:normal;text-align:center;letter-spacing:0px;word-spacing:0px;writing-mode:lr-tb;text-anchor:middle;fill:#9d9d9d;fill-opacity:1;stroke:none;stroke-width:0.61277312px;stroke-linecap:butt;stroke-linejoin:miter;stroke-opacity:1"
       d="m 464.57454,133.57503 -0.0958,-1.56384 1.81917,-0.57448 q 0.0638,-0.51064 0.0958,-1.4681 0.0319,-0.95746 0.0638,-2.04258 0.0319,-1.08512 0.0319,-1.97874 v -3.89367 q 0,-2.20215 -0.0638,-4.11707 -0.0319,-1.94683 -0.0958,-3.15961 l -2.36173,-0.31915 -0.0638,-1.50002 6.57454,-1.69151 0.98938,0.60639 q -0.0958,0.86172 -0.12766,1.69151 -0.0319,0.79789 -0.0638,1.81917 -0.0319,1.02129 -0.0319,2.42556 0,1.40428 0,3.44685 l -0.0319,4.69155 0.47873,-0.0638 4.72346,-4.50006 -2.10641,-0.35106 0.0958,-1.59577 h 7.34051 l 0.0958,1.59577 -2.10641,0.38298 -4.08516,3.31919 4.30856,5.13836 q 0.67022,0.79788 1.08512,1.2766 0.4149,0.47873 0.63831,0.63831 l 1.08512,0.22341 -0.12766,1.56384 h -6.00008 q -0.41489,-0.60639 -0.82979,-1.14895 -0.38298,-0.54255 -0.8298,-1.08511 l -3.44685,-3.9575 h -0.31915 v 0.86172 q 0,0.92554 0,1.91491 0.0319,0.95746 0.0638,1.27661 l 1.97875,0.57448 -0.0958,1.56384 z" />
    <path
       inkscape:connector-curvature="0"
       id="path880"
       style="font-style:normal;font-variant:normal;font-weight:800;font-stretch:normal;font-size:53.33333206px;line-height:1;font-family:'Crimson Pro';-inkscape-font-specification:'Crimson Pro Ultra-Bold';font-variant-ligatures:normal;font-variant-caps:normal;font-variant-numeric:normal;font-feature-settings:normal;text-align:center;letter-spacing:0px;word-spacing:0px;writing-mode:lr-tb;text-anchor:middle;fill:#9d9d9d;fill-opacity:1;stroke:none;stroke-width:0.61277312px;stroke-linecap:butt;stroke-linejoin:miter;stroke-opacity:1"
       d="m 359.47758,166.63925 q -2.45748,0 -4.5958,-0.86171 -2.13832,-0.89363 -3.766,-2.45748 -1.59577,-1.56384 -2.48939,-3.63834 -0.89363,-2.10641 -0.89363,-4.56388 0,-2.45747 0.89363,-4.53197 0.89362,-2.10641 2.48939,-3.67025 1.62768,-1.56385 3.73408,-2.42557 2.13832,-0.89362 4.62772,-0.89362 2.45747,0 4.56388,0.89362 2.13832,0.86172 3.73409,2.42557 1.59576,1.56384 2.48939,3.67025 0.89362,2.0745 0.89362,4.53197 0,2.45747 -0.89362,4.56388 -0.89363,2.0745 -2.48939,3.63834 -1.59577,1.56385 -3.73409,2.45748 -2.10641,0.86171 -4.56388,0.86171 z m 0,-1.69151 q 2.07449,0 3.86174,-0.73405 1.78726,-0.76597 3.1277,-2.10641 1.34044,-1.34044 2.07449,-3.12769 0.76597,-1.78726 0.76597,-3.89367 0,-2.07449 -0.76597,-3.86174 -0.73405,-1.78726 -2.07449,-3.1277 -1.34044,-1.34044 -3.1277,-2.07449 -1.78725,-0.73405 -3.86174,-0.73405 -2.77663,0 -5.0107,1.30852 -2.20215,1.27662 -3.51068,3.51068 -1.30853,2.20216 -1.30853,4.97878 0,2.10641 0.73405,3.89367 0.76597,1.78725 2.10641,3.12769 1.34044,1.34044 3.1277,2.10641 1.78725,0.73405 3.86175,0.73405 z m 0.57447,-3.57451 q -3.3511,0 -5.32985,-1.62768 -1.94683,-1.65959 -1.94683,-4.4043 0,-2.36173 1.18086,-3.82983 1.18087,-1.50002 3.00004,-2.20216 1.81917,-0.70214 3.766,-0.70214 1.21278,0 2.20215,0.25533 1.02129,0.2234 1.6596,0.51064 l 0.15957,3.67026 -1.81917,0.0638 -0.92554,-2.45748 q -0.31915,-0.12766 -0.6383,-0.15957 -0.28724,-0.0638 -0.57448,-0.0638 -1.14895,0 -2.07449,0.98938 -0.89363,0.95746 -0.89363,3.22344 0,2.17024 0.98937,3.51068 1.0213,1.34044 2.36174,1.34044 0.35106,0 0.82979,-0.12766 0.51065,-0.12766 0.89363,-0.44681 l 0.57448,-2.01067 2.07448,0.22341 -0.70213,3.03195 q -0.54256,0.4149 -1.94683,0.8298 -1.37236,0.38298 -2.84046,0.38298 z" />
    <path
       inkscape:connector-curvature="0"
       id="path882"
       style="font-style:normal;font-variant:normal;font-weight:800;font-stretch:normal;font-size:53.33333206px;line-height:1;font-family:'Crimson Pro';-inkscape-font-specification:'Crimson Pro Ultra-Bold';font-variant-ligatures:normal;font-variant-caps:normal;font-variant-numeric:normal;font-feature-settings:normal;text-align:center;letter-spacing:0px;word-spacing:0px;writing-mode:lr-tb;text-anchor:middle;fill:#9d9d9d;fill-opacity:1;stroke:none;stroke-width:0.61277312px;stroke-linecap:butt;stroke-linejoin:miter;stroke-opacity:1"
       d="m 380.54165,166.38393 -0.0638,-1.94683 q 3.98941,-3.09579 5.74475,-5.58518 1.78725,-2.48939 1.78725,-4.85111 0,-1.43619 -0.8298,-2.2979 -0.82979,-0.86171 -2.23406,-0.86171 -2.2979,0 -3.63834,2.26598 l -1.59577,-1.11703 q 0.98938,-2.2979 2.80855,-3.51069 1.85108,-1.24469 4.24473,-1.24469 1.81917,0 3.22344,0.76596 1.43619,0.76597 2.23407,2.10641 0.8298,1.30853 0.8298,3.06387 0,2.48939 -2.01066,4.94687 -2.01067,2.42555 -5.61709,4.50005 h 4.65963 q 0.70213,0 1.0532,-0.0319 0.38298,-0.0319 0.95746,-0.12766 l 0.92554,-2.17024 2.20215,0.28724 -1.14895,5.87241 q -0.60639,-0.0638 -1.56384,-0.0957 -0.95746,-0.0319 -1.85109,-0.0638 -0.89363,-0.0319 -1.27661,-0.0319 h -6.31925 q -0.57448,0 -1.2447,0.0319 -0.6383,0.0319 -1.27661,0.0957 z" />
    <path
       inkscape:connector-curvature="0"
       id="path884"
       style="font-style:normal;font-variant:normal;font-weight:800;font-stretch:normal;font-size:53.33333206px;line-height:1;font-family:'Crimson Pro';-inkscape-font-specification:'Crimson Pro Ultra-Bold';font-variant-ligatures:normal;font-variant-caps:normal;font-variant-numeric:normal;font-feature-settings:normal;text-align:center;letter-spacing:0px;word-spacing:0px;writing-mode:lr-tb;text-anchor:middle;fill:#9d9d9d;fill-opacity:1;stroke:none;stroke-width:0.61277312px;stroke-linecap:butt;stroke-linejoin:miter;stroke-opacity:1"
       d="m 407.86112,154.25612 -1.34044,-0.57447 0.0957,-1.56385 h 5.58517 l 0.0957,1.56385 -1.50002,0.57447 -3.766,4.18091 4.5958,5.68091 1.50002,0.57448 -0.0958,1.56385 h -8.3618 l -0.0957,-1.56385 1.50001,-0.57448 -2.7128,-3.3511 -2.36173,3.3511 1.50002,0.57448 -0.0957,1.56385 h -5.80858 l -0.0958,-1.56385 1.50002,-0.57448 4.14898,-4.8192 -4.05323,-5.04262 -1.50002,-0.57447 0.0957,-1.56385 h 8.26606 l 0.0958,1.56385 -1.34045,0.57447 2.17024,2.68089 z" />
    <path
       inkscape:connector-curvature="0"
       id="path886"
       style="font-style:normal;font-variant:normal;font-weight:800;font-stretch:normal;font-size:53.33333206px;line-height:1;font-family:'Crimson Pro';-inkscape-font-specification:'Crimson Pro Ultra-Bold';font-variant-ligatures:normal;font-variant-caps:normal;font-variant-numeric:normal;font-feature-settings:normal;text-align:center;letter-spacing:0px;word-spacing:0px;writing-mode:lr-tb;text-anchor:middle;fill:#9d9d9d;fill-opacity:1;stroke:none;stroke-width:0.61277312px;stroke-linecap:butt;stroke-linejoin:miter;stroke-opacity:1"
       d="m 425.03153,154.25612 -1.34044,-0.57447 0.0958,-1.56385 h 5.58517 l 0.0957,1.56385 -1.50002,0.57447 -3.76599,4.18091 4.59579,5.68091 1.50002,0.57448 -0.0958,1.56385 h -8.3618 l -0.0957,-1.56385 1.50002,-0.57448 -2.7128,-3.3511 -2.36173,3.3511 1.50002,0.57448 -0.0958,1.56385 h -5.80858 l -0.0957,-1.56385 1.50002,-0.57448 4.14898,-4.8192 -4.05324,-5.04262 -1.50002,-0.57447 0.0957,-1.56385 h 8.26605 l 0.0958,1.56385 -1.34044,0.57447 2.17024,2.68089 z" />
    <path
       inkscape:connector-curvature="0"
       id="path888"
       style="font-style:normal;font-variant:normal;font-weight:800;font-stretch:normal;font-size:53.33333206px;line-height:1;font-family:'Crimson Pro';-inkscape-font-specification:'Crimson Pro Ultra-Bold';font-variant-ligatures:normal;font-variant-caps:normal;font-variant-numeric:normal;font-feature-settings:normal;text-align:center;letter-spacing:0px;word-spacing:0px;writing-mode:lr-tb;text-anchor:middle;fill:#9d9d9d;fill-opacity:1;stroke:none;stroke-width:0.61277312px;stroke-linecap:butt;stroke-linejoin:miter;stroke-opacity:1"
       d="m 442.20195,154.25612 -1.34045,-0.57447 0.0958,-1.56385 h 5.58517 l 0.0957,1.56385 -1.50001,0.57447 -3.766,4.18091 4.59579,5.68091 1.50002,0.57448 -0.0957,1.56385 h -8.3618 l -0.0958,-1.56385 1.50002,-0.57448 -2.7128,-3.3511 -2.36173,3.3511 1.50002,0.57448 -0.0958,1.56385 h -5.80858 l -0.0957,-1.56385 1.50002,-0.57448 4.14898,-4.8192 -4.05324,-5.04262 -1.50002,-0.57447 0.0958,-1.56385 h 8.26606 l 0.0957,1.56385 -1.34044,0.57447 2.17024,2.68089 z" />
    <path
       inkscape:connector-curvature="0"
       id="path890"
       style="font-style:normal;font-variant:normal;font-weight:800;font-stretch:normal;font-size:53.33333206px;line-height:1;font-family:'Crimson Pro';-inkscape-font-specification:'Crimson Pro Ultra-Bold';font-variant-ligatures:normal;font-variant-caps:normal;font-variant-numeric:normal;font-feature-settings:normal;text-align:center;letter-spacing:0px;word-spacing:0px;writing-mode:lr-tb;text-anchor:middle;fill:#9d9d9d;fill-opacity:1;stroke:none;stroke-width:0.61277312px;stroke-linecap:butt;stroke-linejoin:miter;stroke-opacity:1"
       d="m 267.62544,198.9375 -0.0957,-1.72343 1.65959,-0.57447 6.4788,-15.35125 2.93621,-1.65959 7.46817,17.01084 1.6915,0.57447 -0.0957,1.72343 h -9.28735 l -0.12765,-1.72343 2.07449,-0.57447 -1.27661,-3.00004 q -0.44681,0 -1.18087,0 -0.70213,-0.0319 -1.78725,-0.0319 -1.11703,0 -1.81917,0.0319 -0.70214,0 -1.14895,0.0319 l -1.02129,2.96812 2.07449,0.57447 -0.0958,1.72343 z m 8.45755,-7.43626 q 0.67022,0 1.18086,-0.0319 0.54256,-0.0319 0.98938,-0.0638 l -2.36174,-5.39368 -2.01066,5.39368 q 0.4149,0.0319 0.95746,0.0638 0.54256,0.0319 1.2447,0.0319 z" />
    <path
       inkscape:connector-curvature="0"
       id="path892"
       style="font-style:normal;font-variant:normal;font-weight:800;font-stretch:normal;font-size:53.33333206px;line-height:1;font-family:'Crimson Pro';-inkscape-font-specification:'Crimson Pro Ultra-Bold';font-variant-ligatures:normal;font-variant-caps:normal;font-variant-numeric:normal;font-feature-settings:normal;text-align:center;letter-spacing:0px;word-spacing:0px;writing-mode:lr-tb;text-anchor:middle;fill:#9d9d9d;fill-opacity:1;stroke:none;stroke-width:0.61277312px;stroke-linecap:butt;stroke-linejoin:miter;stroke-opacity:1"
       d="m 287.85972,198.9375 -0.0958,-1.62768 2.0745,-0.51065 q 0.0319,-0.41489 0.0638,-1.34044 0.0638,-0.95746 0.0958,-2.04257 0.0319,-1.08512 0.0319,-1.91492 v -4.08516 q 0,-2.1064 -0.0638,-4.05323 -0.0319,-1.97875 -0.12766,-3.22344 l -2.36173,-0.31916 -0.0638,-1.50001 6.63837,-1.69151 0.98938,0.60639 q -0.0958,1.30852 -0.12766,2.55322 -0.0319,1.2447 -0.0638,2.84045 0,1.56386 0,3.89367 l -0.0319,4.50005 q 0,2.36173 0.0319,3.89367 0.0319,1.53193 0.0957,1.88299 l 2.07449,0.51065 -0.0957,1.62768 z" />
    <path
       inkscape:connector-curvature="0"
       id="path894"
       style="font-style:normal;font-variant:normal;font-weight:800;font-stretch:normal;font-size:53.33333206px;line-height:1;font-family:'Crimson Pro';-inkscape-font-specification:'Crimson Pro Ultra-Bold';font-variant-ligatures:normal;font-variant-caps:normal;font-variant-numeric:normal;font-feature-settings:normal;text-align:center;letter-spacing:0px;word-spacing:0px;writing-mode:lr-tb;text-anchor:middle;fill:#9d9d9d;fill-opacity:1;stroke:none;stroke-width:0.61277312px;stroke-linecap:butt;stroke-linejoin:miter;stroke-opacity:1"
       d="m 297.75346,198.9375 -0.0957,-1.62768 2.07449,-0.51065 q 0.0319,-0.41489 0.0638,-1.34044 0.0638,-0.95746 0.0958,-2.04257 0.0319,-1.08512 0.0319,-1.91492 v -4.08516 q 0,-2.1064 -0.0638,-4.05323 -0.0319,-1.97875 -0.12766,-3.22344 l -2.36173,-0.31916 -0.0638,-1.50001 6.63837,-1.69151 0.98938,0.60639 q -0.0958,1.30852 -0.12766,2.55322 -0.0319,1.2447 -0.0638,2.84045 0,1.56386 0,3.89367 l -0.0319,4.50005 q 0,2.36173 0.0319,3.89367 0.0319,1.53193 0.0958,1.88299 l 2.07449,0.51065 -0.0957,1.62768 z" />
    <path
       inkscape:connector-curvature="0"
       id="path896"
       style="font-style:normal;font-variant:normal;font-weight:800;font-stretch:normal;font-size:53.33333206px;line-height:1;font-family:'Crimson Pro';-inkscape-font-specification:'Crimson Pro Ultra-Bold';font-variant-ligatures:normal;font-variant-caps:normal;font-variant-numeric:normal;font-feature-settings:normal;text-align:center;letter-spacing:0px;word-spacing:0px;writing-mode:lr-tb;text-anchor:middle;fill:#9d9d9d;fill-opacity:1;stroke:none;stroke-width:0.61277312px;stroke-linecap:butt;stroke-linejoin:miter;stroke-opacity:1"
       d="m 314.1579,198.9375 -0.0958,-1.56385 1.97875,-0.57448 q 0.0319,-0.2234 0.0638,-1.21277 0.0638,-0.98938 0.0957,-1.91492 l 0.0319,-2.39364 q 0,-0.89364 -0.0638,-1.53194 -0.0319,-0.6383 -0.19149,-1.59576 l -2.04258,-0.44682 v -1.53193 l 5.93623,-1.56385 0.98938,0.57448 -0.12766,2.5213 0.0957,0.0319 q 0.86171,-1.78726 1.78726,-2.42557 0.95746,-0.6383 2.01066,-0.6383 0.89363,0 1.59577,0.54256 0.70213,0.51065 0.70213,1.62768 0,1.11703 -0.76597,1.75534 -0.73405,0.6383 -1.72342,0.6383 -0.70213,0 -1.2447,-0.15957 -0.54256,-0.19149 -1.14895,-0.70214 -0.60638,0.57447 -1.0532,1.4681 l 0.0319,2.39365 q 0,1.94683 0.0319,3.15961 0.0638,1.18086 0.0957,1.37236 l 2.77663,0.54256 -0.0958,1.62768 z" />
    <path
       inkscape:connector-curvature="0"
       id="path898"
       style="font-style:normal;font-variant:normal;font-weight:800;font-stretch:normal;font-size:53.33333206px;line-height:1;font-family:'Crimson Pro';-inkscape-font-specification:'Crimson Pro Ultra-Bold';font-variant-ligatures:normal;font-variant-caps:normal;font-variant-numeric:normal;font-feature-settings:normal;text-align:center;letter-spacing:0px;word-spacing:0px;writing-mode:lr-tb;text-anchor:middle;fill:#9d9d9d;fill-opacity:1;stroke:none;stroke-width:0.61277312px;stroke-linecap:butt;stroke-linejoin:miter;stroke-opacity:1"
       d="m 327.7538,198.9375 -0.0958,-1.62768 2.10641,-0.51065 q 0.0319,-0.2234 0.0638,-1.18086 0.0638,-0.98937 0.0958,-1.94683 l 0.0319,-2.39364 q 0,-0.89364 -0.0638,-1.56386 -0.0319,-0.67022 -0.1915,-1.56384 l -2.13832,-0.44682 v -1.53193 l 6.31922,-1.56385 0.98938,0.57448 q -0.0958,1.0532 -0.15958,2.10641 -0.0319,1.0532 -0.0319,2.36173 v 4.08515 q 0,0.92554 0.0319,1.883 0.0638,0.92554 0.12766,1.18086 l 2.07449,0.51065 -0.0957,1.62768 z m 4.5958,-16.56402 q -1.4681,0 -2.26598,-0.86172 -0.79789,-0.86171 -0.79789,-1.97874 0,-1.11703 0.79789,-1.97875 0.79788,-0.86171 2.26598,-0.86171 1.4681,0 2.23407,0.86171 0.76596,0.86172 0.76596,1.97875 0,1.11703 -0.76596,1.97874 -0.76597,0.86172 -2.23407,0.86172 z" />
    <path
       inkscape:connector-curvature="0"
       id="path900"
       style="font-style:normal;font-variant:normal;font-weight:800;font-stretch:normal;font-size:53.33333206px;line-height:1;font-family:'Crimson Pro';-inkscape-font-specification:'Crimson Pro Ultra-Bold';font-variant-ligatures:normal;font-variant-caps:normal;font-variant-numeric:normal;font-feature-settings:normal;text-align:center;letter-spacing:0px;word-spacing:0px;writing-mode:lr-tb;text-anchor:middle;fill:#9d9d9d;fill-opacity:1;stroke:none;stroke-width:0.61277312px;stroke-linecap:butt;stroke-linejoin:miter;stroke-opacity:1"
       d="m 345.27528,195.23533 q -1.14895,0 -2.17024,-0.25533 -0.25532,0.28724 -0.25532,0.57448 0,0.6383 0.73405,0.70214 l 5.29794,0.51064 q 2.39364,0.25532 3.51068,1.34044 1.14895,1.0532 1.14895,2.68088 0,1.50002 -1.08512,2.74472 -1.08512,1.24469 -2.96812,1.94683 -1.883,0.73405 -4.30856,0.73405 -3.5426,0 -5.52134,-0.92554 -1.94683,-0.92555 -1.94683,-2.52131 0,-0.95746 1.02128,-1.78726 1.02129,-0.82979 2.7128,-1.30852 -1.21278,-0.15958 -1.85109,-0.73405 -0.6383,-0.57448 -0.6383,-1.40427 0,-0.89363 0.73405,-1.6596 0.76596,-0.76596 2.07449,-1.30852 -1.4681,-0.63831 -2.2979,-1.85109 -0.8298,-1.21278 -0.8298,-2.80855 0,-1.59575 0.89364,-2.80854 0.89362,-1.24469 2.45747,-1.94683 1.56385,-0.70214 3.51068,-0.70214 1.0532,0 2.01066,0.28724 0.95746,0.25533 1.75534,0.73406 l 4.43622,-0.57448 v 2.74472 l -2.45747,-0.28724 q 0.76596,1.24469 0.76596,2.64896 0,1.53193 -0.86171,2.7128 -0.8298,1.18087 -2.36173,1.85109 -1.50001,0.67022 -3.51068,0.67022 z m 0.28724,-2.0745 q 0.86171,0 1.37236,-0.82979 0.51064,-0.86171 0.51064,-2.32982 0,-1.56385 -0.54256,-2.5213 -0.54256,-0.95746 -1.43618,-0.95746 -0.86172,0 -1.40428,0.92554 -0.51064,0.89363 -0.51064,2.36173 0,1.50002 0.54256,2.42556 0.57447,0.92554 1.4681,0.92554 z m -3.44685,9.00011 q 0,2.07449 3.44685,2.07449 1.62768,0 2.7128,-0.67022 1.11703,-0.67022 1.11703,-1.69151 0,-0.70213 -0.51064,-1.08512 -0.47873,-0.35107 -1.6596,-0.44681 l -4.05323,-0.38299 q -0.47873,0.47873 -0.76597,1.05321 -0.28724,0.57447 -0.28724,1.14895 z" />
    <path
       inkscape:connector-curvature="0"
       id="path902"
       style="font-style:normal;font-variant:normal;font-weight:800;font-stretch:normal;font-size:53.33333206px;line-height:1;font-family:'Crimson Pro';-inkscape-font-specification:'Crimson Pro Ultra-Bold';font-variant-ligatures:normal;font-variant-caps:normal;font-variant-numeric:normal;font-feature-settings:normal;text-align:center;letter-spacing:0px;word-spacing:0px;writing-mode:lr-tb;text-anchor:middle;fill:#9d9d9d;fill-opacity:1;stroke:none;stroke-width:0.61277312px;stroke-linecap:butt;stroke-linejoin:miter;stroke-opacity:1"
       d="m 354.65837,198.9375 -0.0957,-1.56385 1.97875,-0.57448 q 0.0319,-0.41489 0.0638,-1.34044 0.0638,-0.95746 0.0958,-2.04257 0.0319,-1.08512 0.0319,-1.91492 V 187.448 q 0,-2.20215 -0.0638,-4.11707 -0.0319,-1.94683 -0.12766,-3.19152 l -2.36173,-0.31916 -0.0638,-1.50001 6.57454,-1.69151 0.98938,0.60639 q -0.0638,0.95745 -0.12766,1.883 -0.0638,0.89362 -0.0958,1.97874 -0.0319,1.08512 -0.0638,2.55322 -0.0319,1.43619 -0.0638,3.47877 l 0.0958,0.0319 q 1.88299,-2.61705 4.72345,-2.61705 2.13833,0 3.51069,1.56385 1.37235,1.56384 1.37235,4.24473 v 3.25535 q 0,1.05321 0.0319,2.01067 0.0319,0.95745 0.0957,1.18086 l 1.97875,0.57447 -0.0957,1.56386 h -8.52137 l -0.0957,-1.56386 1.75534,-0.57447 q 0.0638,-0.51064 0.0958,-1.50001 0.0638,-1.0213 0.0638,-1.75535 v -2.39364 q 0,-1.75534 -0.70214,-2.52131 -0.70214,-0.76596 -1.78725,-0.76596 -1.43619,0 -2.42556,1.21278 v 4.65962 q 0,1.08513 0.0319,1.97875 0.0638,0.86171 0.12766,1.08512 l 1.88301,0.57447 -0.0958,1.56386 z" />
    <path
       inkscape:connector-curvature="0"
       id="path904"
       style="font-style:normal;font-variant:normal;font-weight:800;font-stretch:normal;font-size:53.33333206px;line-height:1;font-family:'Crimson Pro';-inkscape-font-specification:'Crimson Pro Ultra-Bold';font-variant-ligatures:normal;font-variant-caps:normal;font-variant-numeric:normal;font-feature-settings:normal;text-align:center;letter-spacing:0px;word-spacing:0px;writing-mode:lr-tb;text-anchor:middle;fill:#9d9d9d;fill-opacity:1;stroke:none;stroke-width:0.61277312px;stroke-linecap:butt;stroke-linejoin:miter;stroke-opacity:1"
       d="m 385.61617,196.00129 q -0.47873,1.50002 -1.81917,2.39365 -1.30852,0.86171 -3.00003,0.86171 -2.32981,0 -3.79792,-1.30853 -1.4681,-1.30852 -1.4681,-3.9894 l 0.0958,-6.95753 h -2.23407 v -1.08512 l 6.00007,-4.5958 h 1.0532 l -0.0319,3.51068 h 4.34048 v 2.17024 h -4.37239 l -0.0638,6.60646 q 0,1.21278 0.60639,1.72342 0.6383,0.51064 1.72342,0.51064 1.14895,0 2.07449,-0.79788 z" />
    <path
       inkscape:connector-curvature="0"
       id="path906"
       style="font-style:normal;font-variant:normal;font-weight:800;font-stretch:normal;font-size:53.33333206px;line-height:1;font-family:'Crimson Pro';-inkscape-font-specification:'Crimson Pro Ultra-Bold';font-variant-ligatures:normal;font-variant-caps:normal;font-variant-numeric:normal;font-feature-settings:normal;text-align:center;letter-spacing:0px;word-spacing:0px;writing-mode:lr-tb;text-anchor:middle;fill:#9d9d9d;fill-opacity:1;stroke:none;stroke-width:0.61277312px;stroke-linecap:butt;stroke-linejoin:miter;stroke-opacity:1"
       d="m 391.42475,199.19282 q -1.37236,0 -2.74471,-0.31915 -1.34044,-0.31915 -2.26599,-0.79788 l -0.15957,-3.86175 h 2.23407 l 0.67022,2.2979 q 1.24469,0.67022 2.5213,0.67022 1.85109,0 1.85109,-1.2447 0,-0.70213 -0.54256,-1.14895 -0.54256,-0.44681 -2.26599,-1.0532 -2.36172,-0.86172 -3.28727,-1.91492 -0.92554,-1.0532 -0.92554,-2.61705 0,-1.37235 0.8298,-2.42556 0.86171,-1.0532 2.36173,-1.62768 1.50001,-0.60639 3.47876,-0.60639 1.08512,0 2.17024,0.22341 1.08512,0.19149 1.78725,0.51064 l 0.4149,3.86175 h -2.23407 l -0.70213,-2.2979 q -0.31915,-0.19149 -0.79788,-0.28724 -0.44682,-0.12766 -0.8298,-0.12766 -0.89363,0 -1.4681,0.38299 -0.54256,0.38298 -0.54256,1.02129 0,0.70213 0.70213,1.18086 0.70214,0.47873 2.55322,1.21278 2.10641,0.82979 3.00004,1.85109 0.89363,0.98937 0.89363,2.45747 0,2.10641 -1.85109,3.38302 -1.81917,1.27661 -4.85112,1.27661 z" />
    <path
       inkscape:connector-curvature="0"
       id="path908"
       style="font-style:normal;font-variant:normal;font-weight:800;font-stretch:normal;font-size:53.33333206px;line-height:1;font-family:'Crimson Pro';-inkscape-font-specification:'Crimson Pro Ultra-Bold';font-variant-ligatures:normal;font-variant-caps:normal;font-variant-numeric:normal;font-feature-settings:normal;text-align:center;letter-spacing:0px;word-spacing:0px;writing-mode:lr-tb;text-anchor:middle;fill:#9d9d9d;fill-opacity:1;stroke:none;stroke-width:0.61277312px;stroke-linecap:butt;stroke-linejoin:miter;stroke-opacity:1"
       d="m 405.75471,198.9375 -0.0958,-1.56385 1.97875,-0.57448 q 0.0319,-0.2234 0.0638,-1.21277 0.0638,-0.98938 0.0958,-1.91492 l 0.0319,-2.39364 q 0,-0.89364 -0.0638,-1.53194 -0.0319,-0.6383 -0.19149,-1.59576 l -2.04257,-0.44682 v -1.53193 l 5.93624,-1.56385 0.98937,0.57448 -0.12766,2.5213 0.0957,0.0319 q 0.86172,-1.78726 1.78726,-2.42557 0.95746,-0.6383 2.01066,-0.6383 0.89363,0 1.59576,0.54256 0.70214,0.51065 0.70214,1.62768 0,1.11703 -0.76596,1.75534 -0.73406,0.6383 -1.72343,0.6383 -0.70214,0 -1.24469,-0.15957 -0.54257,-0.19149 -1.14895,-0.70214 -0.6064,0.57447 -1.05321,1.4681 l 0.0319,2.39365 q 0,1.94683 0.0319,3.15961 0.0638,1.18086 0.0958,1.37236 l 2.77663,0.54256 -0.0958,1.62768 z" />
    <path
       inkscape:connector-curvature="0"
       id="path910"
       style="font-style:normal;font-variant:normal;font-weight:800;font-stretch:normal;font-size:53.33333206px;line-height:1;font-family:'Crimson Pro';-inkscape-font-specification:'Crimson Pro Ultra-Bold';font-variant-ligatures:normal;font-variant-caps:normal;font-variant-numeric:normal;font-feature-settings:normal;text-align:center;letter-spacing:0px;word-spacing:0px;writing-mode:lr-tb;text-anchor:middle;fill:#9d9d9d;fill-opacity:1;stroke:none;stroke-width:0.61277312px;stroke-linecap:butt;stroke-linejoin:miter;stroke-opacity:1"
       d="m 426.4358,199.19282 q -2.13832,0 -3.79791,-0.95746 -1.62768,-0.95746 -2.58514,-2.58514 -0.92554,-1.62768 -0.92554,-3.5745 0,-2.20216 1.0532,-3.89367 1.08512,-1.6915 2.77663,-2.64896 1.69151,-0.98938 3.63834,-0.98938 2.84046,0 4.43622,1.75534 1.62768,1.72343 1.62768,4.53197 v 0.8298 h -8.84053 q 0.15958,1.85108 1.30853,3.00003 1.14895,1.14895 3.00003,1.14895 1.08512,0 1.97875,-0.38298 0.89363,-0.4149 1.72343,-1.34044 l 1.0532,0.98937 q -0.89363,2.01066 -2.61706,3.06386 -1.6915,1.05321 -3.82983,1.05321 z m -0.0957,-12.70227 q -1.05321,0 -1.75534,0.82979 -0.70214,0.8298 -0.79788,2.58513 h 4.8192 v -0.35106 q 0,-1.40427 -0.60639,-2.23407 -0.57447,-0.82979 -1.65959,-0.82979 z" />
    <path
       inkscape:connector-curvature="0"
       id="path912"
       style="font-style:normal;font-variant:normal;font-weight:800;font-stretch:normal;font-size:53.33333206px;line-height:1;font-family:'Crimson Pro';-inkscape-font-specification:'Crimson Pro Ultra-Bold';font-variant-ligatures:normal;font-variant-caps:normal;font-variant-numeric:normal;font-feature-settings:normal;text-align:center;letter-spacing:0px;word-spacing:0px;writing-mode:lr-tb;text-anchor:middle;fill:#9d9d9d;fill-opacity:1;stroke:none;stroke-width:0.61277312px;stroke-linecap:butt;stroke-linejoin:miter;stroke-opacity:1"
       d="m 439.87213,199.19282 q -1.37235,0 -2.74471,-0.31915 -1.34044,-0.31915 -2.26598,-0.79788 l -0.15958,-3.86175 h 2.23407 l 0.67022,2.2979 q 1.24469,0.67022 2.52131,0.67022 1.85108,0 1.85108,-1.2447 0,-0.70213 -0.54256,-1.14895 -0.54256,-0.44681 -2.26598,-1.0532 -2.36173,-0.86172 -3.28728,-1.91492 -0.92554,-1.0532 -0.92554,-2.61705 0,-1.37235 0.8298,-2.42556 0.86171,-1.0532 2.36173,-1.62768 1.50002,-0.60639 3.47876,-0.60639 1.08512,0 2.17024,0.22341 1.08512,0.19149 1.78726,0.51064 l 0.41489,3.86175 h -2.23406 l -0.70214,-2.2979 q -0.31915,-0.19149 -0.79788,-0.28724 -0.44682,-0.12766 -0.8298,-0.12766 -0.89363,0 -1.4681,0.38299 -0.54256,0.38298 -0.54256,1.02129 0,0.70213 0.70214,1.18086 0.70213,0.47873 2.55321,1.21278 2.10641,0.82979 3.00004,1.85109 0.89363,0.98937 0.89363,2.45747 0,2.10641 -1.85108,3.38302 -1.81918,1.27661 -4.85113,1.27661 z" />
    <path
       inkscape:connector-curvature="0"
       id="path914"
       style="font-style:normal;font-variant:normal;font-weight:800;font-stretch:normal;font-size:53.33333206px;line-height:1;font-family:'Crimson Pro';-inkscape-font-specification:'Crimson Pro Ultra-Bold';font-variant-ligatures:normal;font-variant-caps:normal;font-variant-numeric:normal;font-feature-settings:normal;text-align:center;letter-spacing:0px;word-spacing:0px;writing-mode:lr-tb;text-anchor:middle;fill:#9d9d9d;fill-opacity:1;stroke:none;stroke-width:0.61277312px;stroke-linecap:butt;stroke-linejoin:miter;stroke-opacity:1"
       d="m 455.67018,199.19282 q -2.13832,0 -3.79792,-0.95746 -1.62767,-0.95746 -2.58513,-2.58514 -0.92554,-1.62768 -0.92554,-3.5745 0,-2.20216 1.0532,-3.89367 1.08512,-1.6915 2.77663,-2.64896 1.69151,-0.98938 3.63834,-0.98938 2.84046,0 4.43622,1.75534 1.62768,1.72343 1.62768,4.53197 v 0.8298 h -8.84053 q 0.15958,1.85108 1.30853,3.00003 1.14894,1.14895 3.00003,1.14895 1.08512,0 1.97875,-0.38298 0.89363,-0.4149 1.72342,-1.34044 l 1.0532,0.98937 q -0.89362,2.01066 -2.61704,3.06386 -1.69152,1.05321 -3.82984,1.05321 z m -0.0957,-12.70227 q -1.05321,0 -1.75534,0.82979 -0.70214,0.8298 -0.79789,2.58513 h 4.81921 v -0.35106 q 0,-1.40427 -0.60639,-2.23407 -0.57448,-0.82979 -1.65959,-0.82979 z" />
    <path
       inkscape:connector-curvature="0"
       id="path916"
       style="font-style:normal;font-variant:normal;font-weight:800;font-stretch:normal;font-size:53.33333206px;line-height:1;font-family:'Crimson Pro';-inkscape-font-specification:'Crimson Pro Ultra-Bold';font-variant-ligatures:normal;font-variant-caps:normal;font-variant-numeric:normal;font-feature-settings:normal;text-align:center;letter-spacing:0px;word-spacing:0px;writing-mode:lr-tb;text-anchor:middle;fill:#9d9d9d;fill-opacity:1;stroke:none;stroke-width:0.61277312px;stroke-linecap:butt;stroke-linejoin:miter;stroke-opacity:1"
       d="m 463.39367,198.9375 -0.0957,-1.56385 1.97874,-0.57448 q 0.0319,-0.2234 0.0638,-1.21277 0.0638,-0.98938 0.0958,-1.91492 l 0.0319,-2.39364 q 0,-0.89364 -0.0638,-1.53194 -0.0319,-0.6383 -0.19149,-1.59576 l -2.04259,-0.44682 v -1.53193 l 5.93624,-1.56385 0.98938,0.57448 -0.12766,2.5213 0.0957,0.0319 q 0.86171,-1.78726 1.78726,-2.42557 0.95746,-0.6383 2.01066,-0.6383 0.89363,0 1.59577,0.54256 0.70213,0.51065 0.70213,1.62768 0,1.11703 -0.76597,1.75534 -0.73405,0.6383 -1.72342,0.6383 -0.70213,0 -1.2447,-0.15957 -0.54256,-0.19149 -1.14895,-0.70214 -0.60638,0.57447 -1.0532,1.4681 l 0.0319,2.39365 q 0,1.94683 0.0319,3.15961 0.0638,1.18086 0.0958,1.37236 l 2.77663,0.54256 -0.0958,1.62768 z" />
    <path
       inkscape:connector-curvature="0"
       id="path918"
       style="font-style:normal;font-variant:normal;font-weight:800;font-stretch:normal;font-size:53.33333206px;line-height:1;font-family:'Crimson Pro';-inkscape-font-specification:'Crimson Pro Ultra-Bold';font-variant-ligatures:normal;font-variant-caps:normal;font-variant-numeric:normal;font-feature-settings:normal;text-align:center;letter-spacing:0px;word-spacing:0px;writing-mode:lr-tb;text-anchor:middle;fill:#9d9d9d;fill-opacity:1;stroke:none;stroke-width:0.61277312px;stroke-linecap:butt;stroke-linejoin:miter;stroke-opacity:1"
       d="m 484.20244,199.06516 -5.96816,-12.1278 -1.50002,-0.57448 0.0958,-1.56385 h 8.84053 l 0.0957,1.56385 -1.97874,0.57448 2.87237,6.09581 2.61705,-6.09581 -1.97874,-0.57448 0.0957,-1.56385 h 5.96816 l 0.0958,1.56385 -1.50002,0.57448 -6.22348,12.1278 z" />
    <path
       inkscape:connector-curvature="0"
       id="path920"
       style="font-style:normal;font-variant:normal;font-weight:800;font-stretch:normal;font-size:53.33333206px;line-height:1;font-family:'Crimson Pro';-inkscape-font-specification:'Crimson Pro Ultra-Bold';font-variant-ligatures:normal;font-variant-caps:normal;font-variant-numeric:normal;font-feature-settings:normal;text-align:center;letter-spacing:0px;word-spacing:0px;writing-mode:lr-tb;text-anchor:middle;fill:#9d9d9d;fill-opacity:1;stroke:none;stroke-width:0.61277312px;stroke-linecap:butt;stroke-linejoin:miter;stroke-opacity:1"
       d="m 500.98987,199.19282 q -2.13833,0 -3.79792,-0.95746 -1.62768,-0.95746 -2.58513,-2.58514 -0.92555,-1.62768 -0.92555,-3.5745 0,-2.20216 1.0532,-3.89367 1.08512,-1.6915 2.77663,-2.64896 1.69151,-0.98938 3.63834,-0.98938 2.84046,0 4.43622,1.75534 1.62768,1.72343 1.62768,4.53197 v 0.8298 h -8.84052 q 0.15957,1.85108 1.30852,3.00003 1.14895,1.14895 3.00004,1.14895 1.08511,0 1.97874,-0.38298 0.89363,-0.4149 1.72343,-1.34044 l 1.0532,0.98937 q -0.89363,2.01066 -2.61705,3.06386 -1.69151,1.05321 -3.82983,1.05321 z m -0.0958,-12.70227 q -1.0532,0 -1.75534,0.82979 -0.70213,0.8298 -0.79788,2.58513 h 4.81921 v -0.35106 q 0,-1.40427 -0.60639,-2.23407 -0.57448,-0.82979 -1.6596,-0.82979 z" />
    <path
       inkscape:connector-curvature="0"
       id="path922"
       style="font-style:normal;font-variant:normal;font-weight:800;font-stretch:normal;font-size:53.33333206px;line-height:1;font-family:'Crimson Pro';-inkscape-font-specification:'Crimson Pro Ultra-Bold';font-variant-ligatures:normal;font-variant-caps:normal;font-variant-numeric:normal;font-feature-settings:normal;text-align:center;letter-spacing:0px;word-spacing:0px;writing-mode:lr-tb;text-anchor:middle;fill:#9d9d9d;fill-opacity:1;stroke:none;stroke-width:0.61277312px;stroke-linecap:butt;stroke-linejoin:miter;stroke-opacity:1"
       d="m 520.33051,199.3524 -1.02128,-0.47873 0.0319,-2.10641 -0.0957,-0.0638 q -0.76597,1.43618 -1.75534,2.01066 -0.95746,0.54256 -1.97875,0.54256 -1.65959,0 -3.09578,-0.8298 -1.40427,-0.86171 -2.2979,-2.42556 -0.89363,-1.56384 -0.89363,-3.67025 0,-1.78726 0.67022,-3.22344 0.70214,-1.43619 1.85109,-2.42556 1.14895,-1.02129 2.55322,-1.53194 1.43618,-0.54256 2.9362,-0.54256 0.51065,0 1.02129,0.0958 0.54256,0.0638 0.89363,0.2234 0,-1.30852 -0.0638,-2.68088 -0.0319,-1.40427 -0.0638,-2.13832 l -2.32982,-0.28724 -0.0638,-1.50001 6.54262,-1.69151 0.95746,0.60639 q -0.0957,1.97874 -0.19149,3.60642 -0.0958,1.62768 -0.0958,3.35111 l -0.0319,7.43625 q 0,1.53193 0.0638,2.42556 0.0957,0.89363 0.15958,1.75534 l 2.13832,0.44682 v 1.50001 z m -3.03195,-3.51069 q 0.35107,0 0.95746,-0.25531 0.60639,-0.28724 0.95746,-0.92555 v -7.24477 q -0.38298,-0.41489 -0.86171,-0.57447 -0.47873,-0.15957 -0.98938,-0.15957 -1.34044,0 -2.23407,1.18086 -0.89362,1.14895 -0.89362,3.22344 0,2.32982 0.89362,3.5426 0.92555,1.21277 2.17024,1.21277 z" />
  </g>
</svg>
